HIERARCHY
ROOT simHips
{
  OFFSET -207.309 99.2161 274.177
  CHANNELS 6 Xposition Yposition Zposition Zrotation Xrotation Yrotation
  JOINT simSpine
  {
    OFFSET -0.000355721 21.3001 -0.016921
    CHANNELS 3 Zrotation Xrotation Yrotation
    JOINT simLeftArm
    {
      OFFSET 13.5181 21.3012 0
      CHANNELS 3 Zrotation Xrotation Yrotation
      JOINT simLeftForeArm
      {
        OFFSET 24.5783 0 0
        CHANNELS 3 Zrotation Xrotation Yrotation
        JOINT simLeftHand
        {
          OFFSET 24.5783 0 0
          CHANNELS 3 Zrotation Xrotation Yrotation
          End Site
          {
            OFFSET 7.32568 1.52588e-05 0.0169305
          }
        }
      }
    }
    JOINT simHead
    {
      OFFSET 0 27.4458 -0.00489235
      CHANNELS 3 Zrotation Xrotation Yrotation
      End Site
      {
        OFFSET 0 0 0
      }
    }
    JOINT simRightArm
    {
      OFFSET -13.5174 21.3012 0
      CHANNELS 3 Zrotation Xrotation Yrotation
      JOINT simRightForeArm
      {
        OFFSET -24.5783 0 0
        CHANNELS 3 Zrotation Xrotation Yrotation
        JOINT simRightHand
        {
          OFFSET -24.5783 0 0
          CHANNELS 3 Zrotation Xrotation Yrotation
          End Site
          {
            OFFSET -7.32568 1.52588e-05 0.0169305
          }
        }
      }
    }
  }
  JOINT simRightUpLeg
  {
    OFFSET -8.44614 -9.41038 0.835684
    CHANNELS 3 Zrotation Xrotation Yrotation
    JOINT simRightLeg
    {
      OFFSET 0 -40.9639 0
      CHANNELS 3 Zrotation Xrotation Yrotation
      JOINT simRightFoot
      {
        OFFSET 0 -40.9639 0
        CHANNELS 3 Zrotation Xrotation Yrotation
        End Site
        {
          OFFSET 0.50614 -9.67405 14.6709
        }
      }
    }
  }
  JOINT simLeftUpLeg
  {
    OFFSET 8.44614 -9.41038 0.835684
    CHANNELS 3 Zrotation Xrotation Yrotation
    JOINT simLeftLeg
    {
      OFFSET 0 -40.9639 0
      CHANNELS 3 Zrotation Xrotation Yrotation
      JOINT simLeftFoot
      {
        OFFSET 0 -40.9639 0
        CHANNELS 3 Zrotation Xrotation Yrotation
        End Site
        {
          OFFSET -0.50614 -9.67405 14.6709
        }
      }
    }
  }
}
MOTION
Frames:	20
Frame Time:	0.0333333
-207.309 99.2161 274.177 0.000247325 0 -0 1.8863e-07 0.00278632 -0.00387885 -13.6759 -3.81115e-07 12.0225 16.8065 -19.7446 -38.7352 -1.66064e-06 -6.33282e-06 -0.00370022 -1.70755e-06 -7.76503e-19 -0 15.7554 -2.93608e-06 -4.61368e-05 -19.1048 -9.99003 27.4699 3.52954e-07 -4.3047e-06 4.66652e-06 -2.03564 -7.57934 -0.0199017 9.63743e-06 21.2571 0.210737 2.01411 -8.62849 0.292469 5.06734 -7.90281 0.0822533 0.00133034 20.4409 -0.51349 -5.00494 -7.47725 -0.669606 
-207.306 99.2162 274.176 0.000247864 -0.00356192 0.00867093 0.00194679 0.00278632 -0.00387885 -13.682 0.00160062 12.0335 16.8054 -19.7439 -38.735 -0.00675489 0.00493539 -0.00370022 -0.00311013 0.0194509 0.00292699 15.7707 0.00254554 -0.00661012 -19.1048 -9.99003 27.4699 0.00156034 -0.00283833 -0.00549511 -2.03477 -7.56914 -0.0133031 -0.00156796 21.2571 0.202418 2.01809 -8.62454 0.286365 5.06383 -7.89849 0.07242 0.00130205 20.4367 -0.513509 -5.00283 -7.4744 -0.669601 
-207.293 99.2165 274.173 0.00560185 -0.027854 0.0606944 0.0107677 0.00278632 -0.00387885 -13.7096 0.0408313 12.0821 16.7989 -19.7339 -38.7289 -0.0708684 0.0155766 -0.00370022 0.00952568 0.120762 0.0336536 15.8508 0.0509133 -0.0664146 -19.1054 -9.99131 27.473 0.0103471 -0.0158942 -0.0151494 -2.03862 -7.53191 0.0155323 -0.0101569 21.2569 0.158173 2.03678 -8.61467 0.254273 5.04684 -7.87169 0.0391942 0.00275375 20.4195 -0.526467 -4.98397 -7.46231 -0.675786 
-207.28 99.217 274.168 0.0168244 -0.0529166 0.118255 0.0164332 0.00278632 -0.00387885 -13.7225 0.0975766 12.1149 16.7926 -19.7176 -38.7092 -0.148556 0.00411531 0.0085772 0.041704 0.204563 0.0619954 15.9281 0.111975 -0.14667 -19.108 -9.99817 27.4895 0.0247668 -0.018824 0.00671495 -2.0554 -7.51172 0.0234579 -0.01584 21.2742 0.121873 2.04897 -8.61826 0.22858 5.02931 -7.85764 0.0455363 -0.00286871 20.4196 -0.562214 -4.96086 -7.45467 -0.70032 
-207.266 99.2173 274.161 0.0304634 -0.0706124 0.172911 0.0224793 0.00278632 -0.00387885 -13.7224 0.13661 12.1562 16.7844 -19.7033 -38.6978 -0.182368 -0.0107956 0.036829 0.0899169 0.276903 0.0798011 16.0072 0.13159 -0.204064 -19.106 -9.99487 27.483 0.0303186 -0.00670941 0.0334346 -2.07713 -7.49224 0.0218233 -0.0200102 21.2818 0.0919895 2.05832 -8.62655 0.207645 5.00784 -7.85633 0.062773 -0.00944538 20.4241 -0.600868 -4.93901 -7.44868 -0.727561 
-207.253 99.2176 274.151 0.0485189 -0.085451 0.213627 0.0301693 0.00278632 -0.00387885 -13.7147 0.139887 12.2072 16.775 -19.6989 -38.71 -0.193084 0.00129672 0.0712969 0.130805 0.334743 0.0794783 16.078 0.119789 -0.230173 -19.0919 -9.97696 27.4584 0.0517199 0.00107848 0.0438621 -2.10073 -7.47898 0.0242243 -0.0241673 21.2868 0.0666211 2.06275 -8.64596 0.189996 4.98016 -7.85353 0.0480065 -0.0161157 20.4304 -0.61269 -4.91877 -7.44415 -0.736826 
-207.242 99.2179 274.139 0.0687986 -0.103172 0.236609 0.0382809 0.00278632 -0.00491597 -13.6988 0.11314 12.2579 16.7685 -19.7057 -38.7394 -0.195754 0.0175076 0.0867512 0.157769 0.372777 0.0720923 16.1466 0.116505 -0.245855 -19.0771 -9.96199 27.445 0.0953403 -0.00108846 0.0447493 -2.12437 -7.45513 0.0336657 -0.0281282 21.2757 0.0469922 2.06028 -8.67719 0.176254 4.95463 -7.84994 0.0158365 -0.0366749 20.4463 -0.599291 -4.89912 -7.44045 -0.73337 
-207.231 99.2182 274.126 0.0802432 -0.120806 0.248035 0.0459304 0.00278632 -0.00555954 -13.6759 0.0753675 12.2862 16.7684 -19.7201 -38.7699 -0.197889 0.043575 0.0978035 0.187606 0.394483 0.0718722 16.2363 0.141487 -0.267543 -19.0745 -9.96234 27.4529 0.125237 -0.0140245 0.0524725 -2.141 -7.42819 0.0605277 -0.0227696 21.2526 0.025063 2.0572 -8.68898 0.163413 4.93889 -7.84699 -0.014789 -0.0576739 20.4507 -0.579483 -4.88083 -7.43561 -0.725604 
-207.222 99.2184 274.112 0.0860556 -0.12922 0.260509 0.051347 0.00278632 -0.00581097 -13.6527 0.0314804 12.2838 16.7701 -19.7384 -38.8046 -0.199894 0.0708881 0.107647 0.220202 0.411731 0.0852174 16.3433 0.16111 -0.288103 -19.0734 -9.96252 27.4626 0.132493 -0.0324562 0.0634603 -2.1496 -7.39072 0.102265 -0.0149661 21.1949 -0.00529598 2.05874 -8.68473 0.145347 4.92658 -7.84609 -0.0385267 -0.0687867 20.4395 -0.566856 -4.86761 -7.42242 -0.71882 
-207.214 99.2184 274.097 0.0880973 -0.12875 0.284064 0.0557626 0.00278632 -0.00579226 -13.6323 -0.0135761 12.2667 16.7643 -19.7575 -38.8581 -0.202624 0.110468 0.119828 0.242831 0.425095 0.11382 16.4554 0.152082 -0.308816 -19.0757 -9.96421 27.4582 0.139026 -0.0410795 0.0592676 -2.14959 -7.36355 0.14854 -0.0131851 21.1301 -0.0419432 2.06187 -8.67084 0.121597 4.91478 -7.84987 -0.0566513 -0.068886 20.4198 -0.566065 -4.86063 -7.40296 -0.716001 
-207.211 99.2184 274.079 0.0899544 -0.124888 0.317928 0.0619167 0.00278632 -0.00562541 -13.618 -0.0489293 12.2555 16.7518 -19.7768 -38.9272 -0.20705 0.15983 0.13473 0.243166 0.402358 0.141784 16.5619 0.142795 -0.348056 -19.0793 -9.96605 27.448 0.144318 -0.0504508 0.0309172 -2.14342 -7.33885 0.194878 -0.015115 21.0681 -0.0825359 2.0641 -8.65849 0.0945121 4.90621 -7.8623 -0.0810082 -0.0725986 20.4023 -0.565183 -4.85271 -7.38161 -0.714098 
-207.214 99.2199 274.058 0.0900518 -0.119732 0.350142 0.0705162 0.00278632 -0.00543242 -13.6088 -0.0678999 12.2517 16.7377 -19.7902 -38.9877 -0.214163 0.19613 0.145515 0.238396 0.310104 0.150748 16.6657 0.146593 -0.409597 -19.081 -9.96626 27.4449 0.151767 -0.072723 0.00454353 -2.13341 -7.33271 0.240737 -0.0123681 21.028 -0.123171 2.06074 -8.65048 0.0686318 4.90617 -7.88475 -0.114173 -0.0774283 20.3952 -0.564304 -4.84646 -7.3623 -0.712506 
-207.221 99.2215 274.036 0.0850332 -0.107139 0.372814 0.079861 0.00278632 -0.0053353 -13.6011 -0.0581458 12.2395 16.727 -19.7913 -39.0148 -0.235573 0.221999 0.152292 0.25791 0.179388 0.134774 16.7723 0.141534 -0.480677 -19.0808 -9.96459 27.4446 0.175009 -0.0937195 0.00936256 -2.12327 -7.33115 0.276708 -5.37424e-05 20.9896 -0.156152 2.05618 -8.63882 0.0502409 4.91465 -7.91695 -0.144737 -0.079936 20.3902 -0.563403 -4.84369 -7.34171 -0.710302 
-207.229 99.2248 274.014 0.0771681 -0.0857997 0.387942 0.0867296 0.00278632 -0.00545604 -13.5959 -0.0144992 12.2073 16.7243 -19.7838 -39.0052 -0.253204 0.247606 0.159202 0.320068 0.0609372 0.0967182 16.8834 0.103712 -0.54224 -19.0797 -9.95995 27.432 0.208355 -0.0880354 0.0343036 -2.11237 -7.32416 0.296045 0.0122836 20.93 -0.176508 2.0539 -8.61681 0.0400494 4.92551 -7.95206 -0.161383 -0.0767462 20.3767 -0.562449 -4.844 -7.31586 -0.706567 
-207.238 99.2304 273.995 0.0684546 -0.0628113 0.399335 0.0894358 0.00669986 -0.00591664 -13.6035 0.0368414 12.1616 16.73 -19.7809 -38.9861 -0.255681 0.259821 0.163163 0.413242 -0.0294306 0.039399 16.9859 0.0614377 -0.585881 -19.0695 -9.94153 27.3956 0.239769 -0.0785866 0.0462458 -2.09675 -7.31973 0.322021 0.0196276 20.8535 -0.19836 2.05447 -8.58424 0.0273529 4.93419 -7.98233 -0.172752 -0.069954 20.3523 -0.561441 -4.85043 -7.2849 -0.701061 
-207.247 99.2369 273.977 0.0604677 -0.0444085 0.404512 0.09076 0.0144227 -0.0068391 -13.6289 0.0569594 12.116 16.7363 -19.7862 -38.9826 -0.26359 0.271022 0.166468 0.50725 -0.107504 -0.036666 17.0595 0.0541069 -0.611752 -19.0472 -9.90646 27.3337 0.275216 -0.0992356 0.0408559 -2.07483 -7.31617 0.368201 0.0195212 20.7733 -0.226897 2.06651 -8.54782 0.00816846 4.94206 -8.00267 -0.185541 -0.0617786 20.3232 -0.560364 -4.85764 -7.25246 -0.69459 
-207.259 99.2421 273.961 0.0535629 -0.029374 0.400523 0.0949981 0.0222527 -0.00834543 -13.6624 0.0513658 12.0683 16.7438 -19.7893 -38.9719 -0.268579 0.263595 0.164479 0.587549 -0.173094 -0.132693 17.0938 0.0728728 -0.626589 -19.0174 -9.86041 27.2529 0.320524 -0.130192 0.0303112 -2.05139 -7.31438 0.41806 0.0154439 20.6969 -0.25115 2.09863 -8.51617 -0.00826649 4.95408 -8.02033 -0.203386 -0.061525 20.3019 -0.548793 -4.86324 -7.22604 -0.684286 
-207.275 99.2454 273.948 0.0470664 -0.0118545 0.389169 0.100267 0.0272874 -0.0105576 -13.6882 0.0555483 12.0158 16.7552 -19.7807 -38.9273 -0.259873 0.232603 0.155786 0.661584 -0.213855 -0.245261 17.1033 0.0725538 -0.642356 -18.9927 -9.81747 27.1699 0.333735 -0.16586 0.0131695 -2.02797 -7.31711 0.451696 0.0101839 20.643 -0.26281 2.12742 -8.49219 -0.0167168 4.97345 -8.04258 -0.213526 -0.0645244 20.2904 -0.535042 -4.86822 -7.20638 -0.675643 
-207.297 99.2477 273.937 0.039332 0.0098718 0.374312 0.104012 0.027748 -0.0135977 -13.6922 0.0922141 11.971 16.762 -19.7577 -38.8638 -0.267569 0.191028 0.152937 0.745186 -0.228776 -0.378668 17.1052 0.0311769 -0.676837 -18.978 -9.78849 27.1088 0.331543 -0.177681 -0.0125724 -1.99724 -7.33927 0.476173 0.00273609 20.6143 -0.269858 2.12988 -8.47498 -0.0239292 5.00051 -8.0665 -0.205646 -0.0650148 20.2809 -0.530223 -4.87741 -7.19051 -0.672844 
-207.323 99.2487 273.93 0.0312698 0.0359709 0.361277 0.106026 0.0264434 -0.0198635 -13.6692 0.141363 11.9514 16.7648 -19.7394 -38.8189 -0.307457 0.17634 0.172443 0.845507 -0.236333 -0.540545 17.1 -0.0317041 -0.739112 -18.969 -9.77432 27.083 0.334531 -0.148959 -0.0390252 -1.95834 -7.35706 0.509321 -0.0054575 20.5849 -0.287998 2.10244 -8.46205 -0.0404109 5.03026 -8.09436 -0.179727 -0.061509 20.2737 -0.53913 -4.89193 -7.17687 -0.67721 
